{"asset":{"version":"2.0","generator":"Blockbench 4.12.5 glTF exporter"},"scenes":[{"nodes":[10],"name":"blockbench_export"}],"scene":0,"nodes":[{"rotation":[0,0,0.19509032201612825,0.9807852804032304],"translation":[0.14448713438870597,0.6224902779571603,0.03187499940395355],"name":"cube","mesh":0},{"translation":[0,1.9375,0],"name":"pyramid","mesh":1},{"rotation":[0,0,-0.19509032201612825,0.9807852804032304],"translation":[-0.14448713438870597,0.6224902779571603,0.0006249994039535522],"name":"cube","mesh":2},{"rotation":[0,0,-0.3826834323650898,0.9238795325112867],"translation":[-0.26697741234586625,0.704335665040932,0.03187499940395355],"name":"cube","mesh":3},{"rotation":[0,0,0.3826834323650898,0.9238795325112867],"translation":[0.26697741234586625,0.704335665040932,0.03187499940395355],"name":"cube","mesh":4},{"translation":[0,0.6875,0],"name":"cube","mesh":5},{"name":"Bottom","mesh":6},{"name":"Handle","mesh":7},{"name":"Top","mesh":8},{"name":"bone","children":[6,7,8]},{"children":[0,1,2,3,4,5,9]}],"bufferViews":[{"buffer":0,"byteOffset":0,"byteLength":288,"target":34962,"byteStride":12},{"buffer":0,"byteOffset":288,"byteLength":288,"target":34962,"byteStride":12},{"buffer":0,"byteOffset":576,"byteLength":192,"target":34962,"byteStride":8},{"buffer":0,"byteOffset":768,"byteLength":12,"target":34963},{"buffer":0,"byteOffset":780,"byteLength":12,"target":34963},{"buffer":0,"byteOffset":792,"byteLength":48,"target":34963},{"buffer":0,"byteOffset":840,"byteLength":192,"target":34962,"byteStride":12},{"buffer":0,"byteOffset":1032,"byteLength":192,"target":34962,"byteStride":12},{"buffer":0,"byteOffset":1224,"byteLength":128,"target":34962,"byteStride":8},{"buffer":0,"byteOffset":1352,"byteLength":12,"target":34963},{"buffer":0,"byteOffset":1364,"byteLength":24,"target":34963},{"buffer":0,"byteOffset":1388,"byteLength":288,"target":34962,"byteStride":12},{"buffer":0,"byteOffset":1676,"byteLength":288,"target":34962,"byteStride":12},{"buffer":0,"byteOffset":1964,"byteLength":192,"target":34962,"byteStride":8},{"buffer":0,"byteOffset":2156,"byteLength":12,"target":34963},{"buffer":0,"byteOffset":2168,"byteLength":60,"target":34963},{"buffer":0,"byteOffset":2228,"byteLength":288,"target":34962,"byteStride":12},{"buffer":0,"byteOffset":2516,"byteLength":288,"target":34962,"byteStride":12},{"buffer":0,"byteOffset":2804,"byteLength":192,"target":34962,"byteStride":8},{"buffer":0,"byteOffset":2996,"byteLength":12,"target":34963},{"buffer":0,"byteOffset":3008,"byteLength":60,"target":34963},{"buffer":0,"byteOffset":3068,"byteLength":288,"target":34962,"byteStride":12},{"buffer":0,"byteOffset":3356,"byteLength":288,"target":34962,"byteStride":12},{"buffer":0,"byteOffset":3644,"byteLength":192,"target":34962,"byteStride":8},{"buffer":0,"byteOffset":3836,"byteLength":12,"target":34963},{"buffer":0,"byteOffset":3848,"byteLength":12,"target":34963},{"buffer":0,"byteOffset":3860,"byteLength":48,"target":34963},{"buffer":0,"byteOffset":3908,"byteLength":288,"target":34962,"byteStride":12},{"buffer":0,"byteOffset":4196,"byteLength":288,"target":34962,"byteStride":12},{"buffer":0,"byteOffset":4484,"byteLength":192,"target":34962,"byteStride":8},{"buffer":0,"byteOffset":4676,"byteLength":48,"target":34963},{"buffer":0,"byteOffset":4724,"byteLength":288,"target":34962,"byteStride":12},{"buffer":0,"byteOffset":5012,"byteLength":288,"target":34962,"byteStride":12},{"buffer":0,"byteOffset":5300,"byteLength":192,"target":34962,"byteStride":8},{"buffer":0,"byteOffset":5492,"byteLength":72,"target":34963},{"buffer":0,"byteOffset":5564,"byteLength":288,"target":34962,"byteStride":12},{"buffer":0,"byteOffset":5852,"byteLength":288,"target":34962,"byteStride":12},{"buffer":0,"byteOffset":6140,"byteLength":192,"target":34962,"byteStride":8},{"buffer":0,"byteOffset":6332,"byteLength":24,"target":34963},{"buffer":0,"byteOffset":6356,"byteLength":12,"target":34963},{"buffer":0,"byteOffset":6368,"byteLength":12,"target":34963},{"buffer":0,"byteOffset":6380,"byteLength":24,"target":34963},{"buffer":0,"byteOffset":6404,"byteLength":288,"target":34962,"byteStride":12},{"buffer":0,"byteOffset":6692,"byteLength":288,"target":34962,"byteStride":12},{"buffer":0,"byteOffset":6980,"byteLength":192,"target":34962,"byteStride":8},{"buffer":0,"byteOffset":7172,"byteLength":72,"target":34963}],"buffers":[{"byteLength":7244,"uri":"data:application/octet-stream;base64,"}],"accessors":[{"bufferView":0,"componentType":5126,"count":24,"max":[0.09375,0.09375,0.030625000596046448],"min":[-0.09375,-0.09375,-0.09437499940395355],"type":"VEC3"},{"bufferView":1,"componentType":5126,"count":24,"max":[1,1,1],"min":[-1,-1,-1],"type":"VEC3"},{"bufferView":2,"componentType":5126,"count":24,"max":[0.375,0.675000011920929],"min":[0,0],"type":"VEC2"},{"bufferView":3,"componentType":5123,"count":6,"max":[3],"min":[0],"type":"SCALAR"},{"bufferView":4,"componentType":5123,"count":6,"max":[7],"min":[4],"type":"SCALAR"},{"bufferView":5,"componentType":5123,"count":24,"max":[23],"min":[8],"type":"SCALAR"},{"bufferView":6,"componentType":5126,"count":16,"max":[0.125,0.3125,0.015625],"min":[-0.125,0,-0.015625],"type":"VEC3"},{"bufferView":7,"componentType":5126,"count":16,"max":[0.9284766912460327,0.3713906705379486,0.9987523555755615],"min":[-0.9284766912460327,-1,-0.9987523555755615],"type":"VEC3"},{"bufferView":8,"componentType":5126,"count":16,"max":[0.4000000059604645,1],"min":[0,0],"type":"VEC2"},{"bufferView":9,"componentType":5123,"count":6,"max":[3],"min":[0],"type":"SCALAR"},{"bufferView":10,"componentType":5123,"count":12,"max":[15],"min":[4],"type":"SCALAR"},{"bufferView":11,"componentType":5126,"count":24,"max":[0.09375,0.09375,0.06187500059604645],"min":[-0.09375,-0.09375,-0.06312499940395355],"type":"VEC3"},{"bufferView":12,"componentType":5126,"count":24,"max":[1,1,1],"min":[-1,-1,-1],"type":"VEC3"},{"bufferView":13,"componentType":5126,"count":24,"max":[0.5249999761581421,0.75],"min":[0.07450000196695328,0],"type":"VEC2"},{"bufferView":14,"componentType":5123,"count":6,"max":[3],"min":[0],"type":"SCALAR"},{"bufferView":15,"componentType":5123,"count":30,"max":[23],"min":[4],"type":"SCALAR"},{"bufferView":16,"componentType":5126,"count":24,"max":[0.09375,0.09375,-0.0006249994039535522],"min":[-0.09375,-0.09375,-0.06312499940395355],"type":"VEC3"},{"bufferView":17,"componentType":5126,"count":24,"max":[1,1,1],"min":[-1,-1,-1],"type":"VEC3"},{"bufferView":18,"componentType":5126,"count":24,"max":[0.5249999761581421,0.75],"min":[0.07450000196695328,0],"type":"VEC2"},{"bufferView":19,"componentType":5123,"count":6,"max":[3],"min":[0],"type":"SCALAR"},{"bufferView":20,"componentType":5123,"count":30,"max":[23],"min":[4],"type":"SCALAR"},{"bufferView":21,"componentType":5126,"count":24,"max":[0.09375,0.09375,-0.0006249994039535522],"min":[-0.09375,-0.09375,-0.06312499940395355],"type":"VEC3"},{"bufferView":22,"componentType":5126,"count":24,"max":[1,1,1],"min":[-1,-1,-1],"type":"VEC3"},{"bufferView":23,"componentType":5126,"count":24,"max":[0.375,0.75],"min":[0.09312500059604645,0],"type":"VEC2"},{"bufferView":24,"componentType":5123,"count":6,"max":[3],"min":[0],"type":"SCALAR"},{"bufferView":25,"componentType":5123,"count":6,"max":[7],"min":[4],"type":"SCALAR"},{"bufferView":26,"componentType":5123,"count":24,"max":[23],"min":[8],"type":"SCALAR"},{"bufferView":27,"componentType":5126,"count":24,"max":[0.125,1.25,0.015625],"min":[-0.125,0,-0.015625],"type":"VEC3"},{"bufferView":28,"componentType":5126,"count":24,"max":[1,1,1],"min":[-1,-1,-1],"type":"VEC3"},{"bufferView":29,"componentType":5126,"count":24,"max":[0.625,0.625],"min":[0,0],"type":"VEC2"},{"bufferView":30,"componentType":5123,"count":24,"max":[23],"min":[0],"type":"SCALAR"},{"bufferView":31,"componentType":5126,"count":24,"max":[0.09375,0.1875,0.09375],"min":[-0.09375,0,-0.09375],"type":"VEC3"},{"bufferView":32,"componentType":5126,"count":24,"max":[1,1,1],"min":[-1,-1,-1],"type":"VEC3"},{"bufferView":33,"componentType":5126,"count":24,"max":[0.625,0.1875],"min":[0.53125,0],"type":"VEC2"},{"bufferView":34,"componentType":5123,"count":36,"max":[23],"min":[0],"type":"SCALAR"},{"bufferView":35,"componentType":5126,"count":24,"max":[0.0625,0.5,0.0625],"min":[-0.0625,0.1875,-0.0625],"type":"VEC3"},{"bufferView":36,"componentType":5126,"count":24,"max":[1,1,1],"min":[-1,-1,-1],"type":"VEC3"},{"bufferView":37,"componentType":5126,"count":24,"max":[0.625,1],"min":[0,0],"type":"VEC2"},{"bufferView":38,"componentType":5123,"count":12,"max":[7],"min":[0],"type":"SCALAR"},{"bufferView":39,"componentType":5123,"count":6,"max":[11],"min":[8],"type":"SCALAR"},{"bufferView":40,"componentType":5123,"count":6,"max":[15],"min":[12],"type":"SCALAR"},{"bufferView":41,"componentType":5123,"count":12,"max":[23],"min":[16],"type":"SCALAR"},{"bufferView":42,"componentType":5126,"count":24,"max":[0.09375,0.6875,0.09375],"min":[-0.09375,0.5,-0.09375],"type":"VEC3"},{"bufferView":43,"componentType":5126,"count":24,"max":[1,1,1],"min":[-1,-1,-1],"type":"VEC3"},{"bufferView":44,"componentType":5126,"count":24,"max":[0.328125,0.625],"min":[0.140625,0.2499999850988388],"type":"VEC2"},{"bufferView":45,"componentType":5123,"count":36,"max":[23],"min":[0],"type":"SCALAR"}],"materials":[{"pbrMetallicRoughness":{"metallicFactor":0,"roughnessFactor":1,"baseColorTexture":{"index":0}},"alphaMode":"MASK","alphaCutoff":0.05,"doubleSided":true},{"pbrMetallicRoughness":{"metallicFactor":0,"roughnessFactor":1},"alphaMode":"MASK","alphaCutoff":0.05,"doubleSided":true},{"pbrMetallicRoughness":{"metallicFactor":0,"roughnessFactor":1},"alphaMode":"MASK","alphaCutoff":0.05,"doubleSided":true},{"pbrMetallicRoughness":{"metallicFactor":0,"roughnessFactor":1},"alphaMode":"MASK","alphaCutoff":0.05,"doubleSided":true}],"textures":[{"sampler":0,"source":0,"name":"testswwww.png"}],"samplers":[{"magFilter":9728,"minFilter":9728,"wrapS":33071,"wrapT":33071}],"images":[{"mimeType":"image/png","uri":"data:image/png;base64,"}],"meshes":[{"primitives":[{"mode":4,"attributes":{"POSITION":0,"NORMAL":1,"TEXCOORD_0":2},"indices":3,"material":0},{"mode":4,"attributes":{"POSITION":0,"NORMAL":1,"TEXCOORD_0":2},"indices":4,"material":1},{"mode":4,"attributes":{"POSITION":0,"NORMAL":1,"TEXCOORD_0":2},"indices":5,"material":0}]},{"primitives":[{"mode":4,"attributes":{"POSITION":6,"NORMAL":7,"TEXCOORD_0":8},"indices":9,"material":2},{"mode":4,"attributes":{"POSITION":6,"NORMAL":7,"TEXCOORD_0":8},"indices":10,"material":0}]},{"primitives":[{"mode":4,"attributes":{"POSITION":11,"NORMAL":12,"TEXCOORD_0":13},"indices":14,"material":1},{"mode":4,"attributes":{"POSITION":11,"NORMAL":12,"TEXCOORD_0":13},"indices":15,"material":0}]},{"primitives":[{"mode":4,"attributes":{"POSITION":16,"NORMAL":17,"TEXCOORD_0":18},"indices":19,"material":1},{"mode":4,"attributes":{"POSITION":16,"NORMAL":17,"TEXCOORD_0":18},"indices":20,"material":0}]},{"primitives":[{"mode":4,"attributes":{"POSITION":21,"NORMAL":22,"TEXCOORD_0":23},"indices":24,"material":0},{"mode":4,"attributes":{"POSITION":21,"NORMAL":22,"TEXCOORD_0":23},"indices":25,"material":1},{"mode":4,"attributes":{"POSITION":21,"NORMAL":22,"TEXCOORD_0":23},"indices":26,"material":0}]},{"primitives":[{"mode":4,"attributes":{"POSITION":27,"NORMAL":28,"TEXCOORD_0":29},"indices":30,"material":0}]},{"primitives":[{"mode":4,"attributes":{"POSITION":31,"NORMAL":32,"TEXCOORD_0":33},"indices":34,"material":0}]},{"primitives":[{"mode":4,"attributes":{"POSITION":35,"NORMAL":36,"TEXCOORD_0":37},"indices":38,"material":0},{"mode":4,"attributes":{"POSITION":35,"NORMAL":36,"TEXCOORD_0":37},"indices":39,"material":3},{"mode":4,"attributes":{"POSITION":35,"NORMAL":36,"TEXCOORD_0":37},"indices":40,"material":3},{"mode":4,"attributes":{"POSITION":35,"NORMAL":36,"TEXCOORD_0":37},"indices":41,"material":0}]},{"primitives":[{"mode":4,"attributes":{"POSITION":42,"NORMAL":43,"TEXCOORD_0":44},"indices":45,"material":0}]}]}
